<?xml version="1.0" encoding="UTF-8"?>
<!DOCTYPE svg PUBLIC "-//W3C//DTD SVG 1.1//EN" "http://www.w3.org/Graphics/SVG/1.1/DTD/svg11.dtd">
<svg width="203mm" height="72mm" viewBox="0 0 20300 7200" version="1.1" xmlns="http://www.w3.org/2000/svg"
     stroke-width="28.222" stroke-linejoin="round" xml:space="preserve">
 <path fill="rgb(255,255,255)" stroke="none" d="M 10123,7138 L -13,7138 -13,-13 20258,-13 20258,7138 10123,7138 Z"/>
 <path fill="none" stroke="rgb(179,179,179)" stroke-linejoin="round" d="M 10305,6364 L 2452,6364 2452,2345 18158,2345 18158,6364 10305,6364 Z"/>
 <path fill="none" stroke="rgb(179,179,179)" stroke-linejoin="round" d="M 18158,6363 L 2452,6363"/>
 <path fill="none" stroke="rgb(179,179,179)" stroke-linejoin="round" d="M 18158,5788 L 2452,5788"/>
 <path fill="none" stroke="rgb(179,179,179)" stroke-linejoin="round" d="M 18158,5214 L 2452,5214"/>
 <path fill="none" stroke="rgb(179,179,179)" stroke-linejoin="round" d="M 18158,4640 L 2452,4640"/>
 <path fill="none" stroke="rgb(179,179,179)" stroke-linejoin="round" d="M 18158,4065 L 2452,4065"/>
 <path fill="none" stroke="rgb(179,179,179)" stroke-linejoin="round" d="M 18158,3492 L 2452,3492"/>
 <path fill="none" stroke="rgb(179,179,179)" stroke-linejoin="round" d="M 18158,2918 L 2452,2918"/>
 <path fill="none" stroke="rgb(179,179,179)" stroke-linejoin="round" d="M 18158,2344 L 2452,2344"/>
 <path fill="none" stroke="rgb(179,179,179)" stroke-linejoin="round" d="M 2452,6513 L 2452,6363"/>
 <path fill="none" stroke="rgb(179,179,179)" stroke-linejoin="round" d="M 2452,6513 L 2452,6363"/>
 <path fill="none" stroke="rgb(179,179,179)" stroke-linejoin="round" d="M 5069,6513 L 5069,6363"/>
 <path fill="none" stroke="rgb(179,179,179)" stroke-linejoin="round" d="M 5069,6513 L 5069,6363"/>
 <path fill="none" stroke="rgb(179,179,179)" stroke-linejoin="round" d="M 7687,6513 L 7687,6363"/>
 <path fill="none" stroke="rgb(179,179,179)" stroke-linejoin="round" d="M 7687,6513 L 7687,6363"/>
 <path fill="none" stroke="rgb(179,179,179)" stroke-linejoin="round" d="M 10304,6513 L 10304,6363"/>
 <path fill="none" stroke="rgb(179,179,179)" stroke-linejoin="round" d="M 10304,6513 L 10304,6363"/>
 <path fill="none" stroke="rgb(179,179,179)" stroke-linejoin="round" d="M 12922,6513 L 12922,6363"/>
 <path fill="none" stroke="rgb(179,179,179)" stroke-linejoin="round" d="M 12922,6513 L 12922,6363"/>
 <path fill="none" stroke="rgb(179,179,179)" stroke-linejoin="round" d="M 15540,6513 L 15540,6363"/>
 <path fill="none" stroke="rgb(179,179,179)" stroke-linejoin="round" d="M 15540,6513 L 15540,6363"/>
 <path fill="none" stroke="rgb(179,179,179)" stroke-linejoin="round" d="M 18158,6513 L 18158,6363"/>
 <path fill="none" stroke="rgb(179,179,179)" stroke-linejoin="round" d="M 18158,6513 L 18158,6363"/>
 <path fill="none" stroke="rgb(179,179,179)" stroke-linejoin="round" d="M 2452,6363 L 18158,6363"/>
 <path fill="none" stroke="rgb(179,179,179)" stroke-linejoin="round" d="M 2302,6363 L 2452,6363"/>
 <path fill="none" stroke="rgb(179,179,179)" stroke-linejoin="round" d="M 2302,6363 L 2452,6363"/>
 <path fill="none" stroke="rgb(179,179,179)" stroke-linejoin="round" d="M 2302,5788 L 2452,5788"/>
 <path fill="none" stroke="rgb(179,179,179)" stroke-linejoin="round" d="M 2302,5788 L 2452,5788"/>
 <path fill="none" stroke="rgb(179,179,179)" stroke-linejoin="round" d="M 2302,5214 L 2452,5214"/>
 <path fill="none" stroke="rgb(179,179,179)" stroke-linejoin="round" d="M 2302,5214 L 2452,5214"/>
 <path fill="none" stroke="rgb(179,179,179)" stroke-linejoin="round" d="M 2302,4640 L 2452,4640"/>
 <path fill="none" stroke="rgb(179,179,179)" stroke-linejoin="round" d="M 2302,4640 L 2452,4640"/>
 <path fill="none" stroke="rgb(179,179,179)" stroke-linejoin="round" d="M 2302,4065 L 2452,4065"/>
 <path fill="none" stroke="rgb(179,179,179)" stroke-linejoin="round" d="M 2302,4065 L 2452,4065"/>
 <path fill="none" stroke="rgb(179,179,179)" stroke-linejoin="round" d="M 2302,3492 L 2452,3492"/>
 <path fill="none" stroke="rgb(179,179,179)" stroke-linejoin="round" d="M 2302,3492 L 2452,3492"/>
 <path fill="none" stroke="rgb(179,179,179)" stroke-linejoin="round" d="M 2302,2918 L 2452,2918"/>
 <path fill="none" stroke="rgb(179,179,179)" stroke-linejoin="round" d="M 2302,2918 L 2452,2918"/>
 <path fill="none" stroke="rgb(179,179,179)" stroke-linejoin="round" d="M 2302,2344 L 2452,2344"/>
 <path fill="none" stroke="rgb(179,179,179)" stroke-linejoin="round" d="M 2302,2344 L 2452,2344"/>
 <path fill="none" stroke="rgb(179,179,179)" stroke-linejoin="round" d="M 2452,6363 L 2452,2344"/>
 <path fill="rgb(255,166,166)" stroke="none" d="M 2888,6363 L 3760,6363 3760,6248 2888,6248 2888,6363 Z"/>
 <path fill="rgb(255,166,166)" stroke="none" d="M 5506,6363 L 6378,6363 6378,6072 5506,6072 5506,6363 Z"/>
 <path fill="rgb(255,166,166)" stroke="none" d="M 8123,6363 L 8996,6363 8996,4985 8123,4985 8123,6363 Z"/>
 <path fill="rgb(255,166,166)" stroke="none" d="M 10740,6363 L 11613,6363 11613,4076 10740,4076 10740,6363 Z"/>
 <path fill="rgb(255,166,166)" stroke="none" d="M 13358,6363 L 14231,6363 14231,3841 13358,3841 13358,6363 Z"/>
 <path fill="rgb(255,166,166)" stroke="none" d="M 15976,6363 L 16849,6363 16849,3252 15976,3252 15976,6363 Z"/>
 <path fill="rgb(114,159,207)" stroke="none" d="M 3760,6363 L 4633,6363 4633,6192 3760,6192 3760,6363 Z"/>
 <path fill="rgb(114,159,207)" stroke="none" d="M 6378,6363 L 7251,6363 7251,5993 6378,5993 6378,6363 Z"/>
 <path fill="rgb(114,159,207)" stroke="none" d="M 8996,6363 L 9869,6363 9869,4742 8996,4742 8996,6363 Z"/>
 <path fill="rgb(114,159,207)" stroke="none" d="M 11613,6363 L 12486,6363 12486,3795 11613,3795 11613,6363 Z"/>
 <path fill="rgb(114,159,207)" stroke="none" d="M 14231,6363 L 15103,6363 15103,3294 14231,3294 14231,6363 Z"/>
 <path fill="rgb(114,159,207)" stroke="none" d="M 16849,6363 L 17721,6363 17721,2657 16849,2657 16849,6363 Z"/>
 <text class="SVGTextShape"><tspan class="TextParagraph" font-family="Roboto" font-size="282px" font-weight="400"><tspan class="TextPosition" x="3023" y="6918"><tspan fill="rgb(0,0,0)" stroke="none" style="white-space: pre">FPNGe AVX</tspan></tspan></tspan></text>
 <text class="SVGTextShape"><tspan class="TextParagraph" font-family="Roboto" font-size="282px" font-weight="400"><tspan class="TextPosition" x="5730" y="6918"><tspan fill="rgb(0,0,0)" stroke="none" style="white-space: pre">FPNG SSE</tspan></tspan></tspan></text>
 <text class="SVGTextShape"><tspan class="TextParagraph" font-family="Roboto" font-size="282px" font-weight="400"><tspan class="TextPosition" x="7688" y="6918"><tspan fill="rgb(0,0,0)" stroke="none" style="white-space: pre">PNGEncoder Fastest</tspan></tspan></tspan></text>
 <text class="SVGTextShape"><tspan class="TextParagraph" font-family="Roboto" font-size="282px" font-weight="400"><tspan class="TextPosition" x="10825" y="6918"><tspan fill="rgb(0,0,0)" stroke="none" style="white-space: pre">PNGEncoder</tspan></tspan></tspan></text>
 <text class="SVGTextShape"><tspan class="TextParagraph" font-family="Roboto" font-size="282px" font-weight="400"><tspan class="TextPosition" x="13405" y="6918"><tspan fill="rgb(0,0,0)" stroke="none" style="white-space: pre">ObjectPlanet</tspan></tspan></tspan></text>
 <text class="SVGTextShape"><tspan class="TextParagraph" font-family="Roboto" font-size="282px" font-weight="400"><tspan class="TextPosition" x="16315" y="6918"><tspan fill="rgb(0,0,0)" stroke="none" style="white-space: pre">ImageIO</tspan></tspan></tspan></text>
 <text class="SVGTextShape"><tspan class="TextParagraph" font-family="Roboto" font-size="353px" font-weight="400"><tspan class="TextPosition" x="1999" y="6503"><tspan fill="rgb(0,0,0)" stroke="none" style="white-space: pre">0</tspan></tspan></tspan></text>
 <text class="SVGTextShape"><tspan class="TextParagraph" font-family="Roboto" font-size="353px" font-weight="400"><tspan class="TextPosition" x="1796" y="5928"><tspan fill="rgb(0,0,0)" stroke="none" style="white-space: pre">10</tspan></tspan></tspan></text>
 <text class="SVGTextShape"><tspan class="TextParagraph" font-family="Roboto" font-size="353px" font-weight="400"><tspan class="TextPosition" x="1796" y="5354"><tspan fill="rgb(0,0,0)" stroke="none" style="white-space: pre">20</tspan></tspan></tspan></text>
 <text class="SVGTextShape"><tspan class="TextParagraph" font-family="Roboto" font-size="353px" font-weight="400"><tspan class="TextPosition" x="1796" y="4780"><tspan fill="rgb(0,0,0)" stroke="none" style="white-space: pre">30</tspan></tspan></tspan></text>
 <text class="SVGTextShape"><tspan class="TextParagraph" font-family="Roboto" font-size="353px" font-weight="400"><tspan class="TextPosition" x="1796" y="4205"><tspan fill="rgb(0,0,0)" stroke="none" style="white-space: pre">40</tspan></tspan></tspan></text>
 <text class="SVGTextShape"><tspan class="TextParagraph" font-family="Roboto" font-size="353px" font-weight="400"><tspan class="TextPosition" x="1796" y="3631"><tspan fill="rgb(0,0,0)" stroke="none" style="white-space: pre">50</tspan></tspan></tspan></text>
 <text class="SVGTextShape"><tspan class="TextParagraph" font-family="Roboto" font-size="353px" font-weight="400"><tspan class="TextPosition" x="1796" y="3058"><tspan fill="rgb(0,0,0)" stroke="none" style="white-space: pre">60</tspan></tspan></tspan></text>
 <text class="SVGTextShape"><tspan class="TextParagraph" font-family="Roboto" font-size="353px" font-weight="400"><tspan class="TextPosition" x="1796" y="2484"><tspan fill="rgb(0,0,0)" stroke="none" style="white-space: pre">70</tspan></tspan></tspan></text>
 <text class="SVGTextShape"><tspan class="TextParagraph" font-family="Roboto Black" font-size="459px" font-weight="900"><tspan class="TextPosition" x="7735" y="835"><tspan fill="rgb(0,0,0)" stroke="none" style="white-space: pre">Java FPNG Benchmark</tspan></tspan></tspan></text>
 <text class="SVGTextShape"><tspan class="TextParagraph" font-family="Roboto" font-size="388px" font-weight="400"><tspan class="TextPosition" x="6643" y="1741"><tspan fill="rgb(0,0,0)" stroke="none" style="white-space: pre">Smaller Image &quot;example.png&quot; (1.4 MByte)</tspan></tspan></tspan></text>
 <path fill="rgb(255,166,166)" stroke="none" d="M 18785,3376 L 18679,3376 18679,3165 18890,3165 18890,3376 18785,3376 Z"/>
 <path fill="rgb(114,159,207)" stroke="none" d="M 18785,3959 L 18679,3959 18679,3748 18890,3748 18890,3959 18785,3959 Z"/>
 <text class="SVGTextShape"><tspan class="TextParagraph" font-family="Roboto" font-size="353px" font-weight="400"><tspan class="TextPosition" x="18990" y="3410"><tspan fill="rgb(0,0,0)" stroke="none" style="white-space: pre">RGB</tspan></tspan></tspan></text>
 <text class="SVGTextShape"><tspan class="TextParagraph" font-family="Roboto" font-size="353px" font-weight="400"><tspan class="TextPosition" x="18990" y="3993"><tspan fill="rgb(0,0,0)" stroke="none" style="white-space: pre">ARGB</tspan></tspan></tspan></text>
 <text class="SVGTextShape" transform="rotate(-90 -10935 5744)"><tspan class="TextParagraph" font-family="Liberation Sans, sans-serif" font-size="318px" font-weight="400"><tspan class="TextPosition" x="838" y="6503"><tspan fill="rgb(0,0,0)" stroke="none" style="white-space: pre">milli-seconds per encoding</tspan></tspan></tspan><tspan class="TextParagraph" font-family="Liberation Sans, sans-serif" font-size="318px" font-weight="400"><tspan class="TextPosition" x="1219" y="5829"><tspan fill="rgb(0,0,0)" stroke="none" style="white-space: pre">(smaller is better)</tspan></tspan></tspan></text>
 <path fill="rgb(255,255,255)" stroke="none" d="M 487,927 L -13,927 -13,-13 987,-13 987,927 487,927 Z"/>
</svg>