<?xml version="1.0" encoding="UTF-8"?>
<!DOCTYPE svg PUBLIC "-//W3C//DTD SVG 1.1//EN" "http://www.w3.org/Graphics/SVG/1.1/DTD/svg11.dtd">
<svg width="203mm" height="76mm" viewBox="0 0 20300 7600" version="1.1" xmlns="http://www.w3.org/2000/svg"
     stroke-width="28.222" stroke-linejoin="round" xml:space="preserve">
 <path fill="rgb(255,255,255)" stroke="none" d="M 10123,7576 L -13,7576 -13,-13 20258,-13 20258,7576 10123,7576 Z"/>
 <path fill="none" stroke="rgb(179,179,179)" stroke-linejoin="round" d="M 10534,6794 L 2859,6794 2859,2369 18209,2369 18209,6794 10534,6794 Z"/>
 <path fill="none" stroke="rgb(179,179,179)" stroke-linejoin="round" d="M 18209,6793 L 2859,6793"/>
 <path fill="none" stroke="rgb(179,179,179)" stroke-linejoin="round" d="M 18209,6160 L 2859,6160"/>
 <path fill="none" stroke="rgb(179,179,179)" stroke-linejoin="round" d="M 18209,5528 L 2859,5528"/>
 <path fill="none" stroke="rgb(179,179,179)" stroke-linejoin="round" d="M 18209,4896 L 2859,4896"/>
 <path fill="none" stroke="rgb(179,179,179)" stroke-linejoin="round" d="M 18209,4263 L 2859,4263"/>
 <path fill="none" stroke="rgb(179,179,179)" stroke-linejoin="round" d="M 18209,3632 L 2859,3632"/>
 <path fill="none" stroke="rgb(179,179,179)" stroke-linejoin="round" d="M 18209,3000 L 2859,3000"/>
 <path fill="none" stroke="rgb(179,179,179)" stroke-linejoin="round" d="M 18209,2368 L 2859,2368"/>
 <path fill="none" stroke="rgb(179,179,179)" stroke-linejoin="round" d="M 2859,6943 L 2859,6793"/>
 <path fill="none" stroke="rgb(179,179,179)" stroke-linejoin="round" d="M 2859,6943 L 2859,6793"/>
 <path fill="none" stroke="rgb(179,179,179)" stroke-linejoin="round" d="M 5417,6943 L 5417,6793"/>
 <path fill="none" stroke="rgb(179,179,179)" stroke-linejoin="round" d="M 5417,6943 L 5417,6793"/>
 <path fill="none" stroke="rgb(179,179,179)" stroke-linejoin="round" d="M 7976,6943 L 7976,6793"/>
 <path fill="none" stroke="rgb(179,179,179)" stroke-linejoin="round" d="M 7976,6943 L 7976,6793"/>
 <path fill="none" stroke="rgb(179,179,179)" stroke-linejoin="round" d="M 10533,6943 L 10533,6793"/>
 <path fill="none" stroke="rgb(179,179,179)" stroke-linejoin="round" d="M 10533,6943 L 10533,6793"/>
 <path fill="none" stroke="rgb(179,179,179)" stroke-linejoin="round" d="M 13092,6943 L 13092,6793"/>
 <path fill="none" stroke="rgb(179,179,179)" stroke-linejoin="round" d="M 13092,6943 L 13092,6793"/>
 <path fill="none" stroke="rgb(179,179,179)" stroke-linejoin="round" d="M 15650,6943 L 15650,6793"/>
 <path fill="none" stroke="rgb(179,179,179)" stroke-linejoin="round" d="M 15650,6943 L 15650,6793"/>
 <path fill="none" stroke="rgb(179,179,179)" stroke-linejoin="round" d="M 18209,6943 L 18209,6793"/>
 <path fill="none" stroke="rgb(179,179,179)" stroke-linejoin="round" d="M 18209,6943 L 18209,6793"/>
 <path fill="none" stroke="rgb(179,179,179)" stroke-linejoin="round" d="M 2859,6793 L 18209,6793"/>
 <path fill="none" stroke="rgb(179,179,179)" stroke-linejoin="round" d="M 2709,6793 L 2859,6793"/>
 <path fill="none" stroke="rgb(179,179,179)" stroke-linejoin="round" d="M 2709,6793 L 2859,6793"/>
 <path fill="none" stroke="rgb(179,179,179)" stroke-linejoin="round" d="M 2709,6160 L 2859,6160"/>
 <path fill="none" stroke="rgb(179,179,179)" stroke-linejoin="round" d="M 2709,6160 L 2859,6160"/>
 <path fill="none" stroke="rgb(179,179,179)" stroke-linejoin="round" d="M 2709,5528 L 2859,5528"/>
 <path fill="none" stroke="rgb(179,179,179)" stroke-linejoin="round" d="M 2709,5528 L 2859,5528"/>
 <path fill="none" stroke="rgb(179,179,179)" stroke-linejoin="round" d="M 2709,4896 L 2859,4896"/>
 <path fill="none" stroke="rgb(179,179,179)" stroke-linejoin="round" d="M 2709,4896 L 2859,4896"/>
 <path fill="none" stroke="rgb(179,179,179)" stroke-linejoin="round" d="M 2709,4263 L 2859,4263"/>
 <path fill="none" stroke="rgb(179,179,179)" stroke-linejoin="round" d="M 2709,4263 L 2859,4263"/>
 <path fill="none" stroke="rgb(179,179,179)" stroke-linejoin="round" d="M 2709,3632 L 2859,3632"/>
 <path fill="none" stroke="rgb(179,179,179)" stroke-linejoin="round" d="M 2709,3632 L 2859,3632"/>
 <path fill="none" stroke="rgb(179,179,179)" stroke-linejoin="round" d="M 2709,3000 L 2859,3000"/>
 <path fill="none" stroke="rgb(179,179,179)" stroke-linejoin="round" d="M 2709,3000 L 2859,3000"/>
 <path fill="none" stroke="rgb(179,179,179)" stroke-linejoin="round" d="M 2709,2368 L 2859,2368"/>
 <path fill="none" stroke="rgb(179,179,179)" stroke-linejoin="round" d="M 2709,2368 L 2859,2368"/>
 <path fill="none" stroke="rgb(179,179,179)" stroke-linejoin="round" d="M 2859,6793 L 2859,2368"/>
 <path fill="rgb(0,69,134)" stroke="none" d="M 3285,6793 L 4138,6793 4138,5893 3285,5893 3285,6793 Z"/>
 <path fill="rgb(0,69,134)" stroke="none" d="M 5843,6793 L 6696,6793 6696,5606 5843,5606 5843,6793 Z"/>
 <path fill="rgb(0,69,134)" stroke="none" d="M 8402,6793 L 9255,6793 9255,5268 8402,5268 8402,6793 Z"/>
 <path fill="rgb(0,69,134)" stroke="none" d="M 10959,6793 L 11812,6793 11812,4974 10959,4974 10959,6793 Z"/>
 <path fill="rgb(0,69,134)" stroke="none" d="M 13518,6793 L 14371,6793 14371,3836 13518,3836 13518,6793 Z"/>
 <path fill="rgb(0,69,134)" stroke="none" d="M 16076,6793 L 16929,6793 16929,2708 16076,2708 16076,6793 Z"/>
 <path fill="rgb(255,66,14)" stroke="none" d="M 4138,6793 L 4991,6793 4991,6280 4138,6280 4138,6793 Z"/>
 <path fill="rgb(255,66,14)" stroke="none" d="M 6696,6793 L 7549,6793 7549,6733 6696,6733 6696,6793 Z"/>
 <path fill="rgb(255,66,14)" stroke="none" d="M 9255,6793 L 10108,6793 10108,6384 9255,6384 9255,6793 Z"/>
 <path fill="rgb(255,66,14)" stroke="none" d="M 11812,6793 L 12665,6793 12665,6663 11812,6663 11812,6793 Z"/>
 <path fill="rgb(255,66,14)" stroke="none" d="M 14371,6793 L 15224,6793 15224,6461 14371,6461 14371,6793 Z"/>
 <path fill="rgb(255,66,14)" stroke="none" d="M 16929,6793 L 17782,6793 17782,6350 16929,6350 16929,6793 Z"/>
 <text class="SVGTextShape"><tspan class="TextParagraph" font-family="Roboto" font-size="282px" font-weight="400"><tspan class="TextPosition" x="3401" y="7348"><tspan fill="rgb(0,0,0)" stroke="none" style="white-space: pre">FPNGE AVX</tspan></tspan></tspan></text>
 <text class="SVGTextShape"><tspan class="TextParagraph" font-family="Roboto" font-size="282px" font-weight="400"><tspan class="TextPosition" x="5388" y="7348"><tspan fill="rgb(0,0,0)" stroke="none" style="white-space: pre">PNGEncoder Fastest</tspan></tspan></tspan></text>
 <text class="SVGTextShape"><tspan class="TextParagraph" font-family="Roboto" font-size="282px" font-weight="400"><tspan class="TextPosition" x="8531" y="7348"><tspan fill="rgb(0,0,0)" stroke="none" style="white-space: pre">FPNG SSE2</tspan></tspan></tspan></text>
 <text class="SVGTextShape"><tspan class="TextParagraph" font-family="Roboto" font-size="282px" font-weight="400"><tspan class="TextPosition" x="11024" y="7348"><tspan fill="rgb(0,0,0)" stroke="none" style="white-space: pre">PNGEncoder</tspan></tspan></tspan></text>
 <text class="SVGTextShape"><tspan class="TextParagraph" font-family="Roboto" font-size="282px" font-weight="400"><tspan class="TextPosition" x="13545" y="7348"><tspan fill="rgb(0,0,0)" stroke="none" style="white-space: pre">ObjectPlanet</tspan></tspan></tspan></text>
 <text class="SVGTextShape"><tspan class="TextParagraph" font-family="Roboto" font-size="282px" font-weight="400"><tspan class="TextPosition" x="16395" y="7348"><tspan fill="rgb(0,0,0)" stroke="none" style="white-space: pre">ImageIO</tspan></tspan></tspan></text>
 <text class="SVGTextShape"><tspan class="TextParagraph" font-family="Roboto" font-size="353px" font-weight="400"><tspan class="TextPosition" x="2406" y="6933"><tspan fill="rgb(0,0,0)" stroke="none" style="white-space: pre">0</tspan></tspan></tspan></text>
 <text class="SVGTextShape"><tspan class="TextParagraph" font-family="Roboto" font-size="353px" font-weight="400"><tspan class="TextPosition" x="1999" y="6300"><tspan fill="rgb(0,0,0)" stroke="none" style="white-space: pre">200</tspan></tspan></tspan></text>
 <text class="SVGTextShape"><tspan class="TextParagraph" font-family="Roboto" font-size="353px" font-weight="400"><tspan class="TextPosition" x="1999" y="5668"><tspan fill="rgb(0,0,0)" stroke="none" style="white-space: pre">400</tspan></tspan></tspan></text>
 <text class="SVGTextShape"><tspan class="TextParagraph" font-family="Roboto" font-size="353px" font-weight="400"><tspan class="TextPosition" x="1999" y="5036"><tspan fill="rgb(0,0,0)" stroke="none" style="white-space: pre">600</tspan></tspan></tspan></text>
 <text class="SVGTextShape"><tspan class="TextParagraph" font-family="Roboto" font-size="353px" font-weight="400"><tspan class="TextPosition" x="1999" y="4403"><tspan fill="rgb(0,0,0)" stroke="none" style="white-space: pre">800</tspan></tspan></tspan></text>
 <text class="SVGTextShape"><tspan class="TextParagraph" font-family="Roboto" font-size="353px" font-weight="400"><tspan class="TextPosition" x="1796" y="3772"><tspan fill="rgb(0,0,0)" stroke="none" style="white-space: pre">1000</tspan></tspan></tspan></text>
 <text class="SVGTextShape"><tspan class="TextParagraph" font-family="Roboto" font-size="353px" font-weight="400"><tspan class="TextPosition" x="1796" y="3140"><tspan fill="rgb(0,0,0)" stroke="none" style="white-space: pre">1200</tspan></tspan></tspan></text>
 <text class="SVGTextShape"><tspan class="TextParagraph" font-family="Roboto" font-size="353px" font-weight="400"><tspan class="TextPosition" x="1796" y="2508"><tspan fill="rgb(0,0,0)" stroke="none" style="white-space: pre">1400</tspan></tspan></tspan></text>
 <text class="SVGTextShape"><tspan class="TextParagraph" font-family="Roboto Black" font-size="459px" font-weight="900"><tspan class="TextPosition" x="7735" y="843"><tspan fill="rgb(0,0,0)" stroke="none" style="white-space: pre">Java FPNG Benchmark</tspan></tspan></tspan></text>
 <text class="SVGTextShape"><tspan class="TextParagraph" font-family="Roboto" font-size="388px" font-weight="400"><tspan class="TextPosition" x="5944" y="1757"><tspan fill="rgb(0,0,0)" stroke="none" style="white-space: pre">Large Image &quot;looklet-look-scale6.png&quot; (28 MByte)</tspan></tspan></tspan></text>
 <path fill="rgb(0,69,134)" stroke="none" d="M 18836,3595 L 18730,3595 18730,3384 18941,3384 18941,3595 18836,3595 Z"/>
 <path fill="rgb(255,66,14)" stroke="none" d="M 18836,4178 L 18730,4178 18730,3967 18941,3967 18941,4178 18836,4178 Z"/>
 <text class="SVGTextShape"><tspan class="TextParagraph" font-family="Roboto" font-size="353px" font-weight="400"><tspan class="TextPosition" x="19041" y="3629"><tspan fill="rgb(0,0,0)" stroke="none" style="white-space: pre">Score</tspan></tspan></tspan></text>
 <text class="SVGTextShape"><tspan class="TextParagraph" font-family="Roboto" font-size="353px" font-weight="400"><tspan class="TextPosition" x="19041" y="4212"><tspan fill="rgb(0,0,0)" stroke="none" style="white-space: pre">Error</tspan></tspan></tspan></text>
 <text class="SVGTextShape" transform="rotate(-90 -9506 -4198)"><tspan class="TextParagraph" font-family="Liberation Sans, sans-serif" font-size="318px" font-weight="400"><tspan class="TextPosition" x="838" y="6730"><tspan fill="rgb(0,0,0)" stroke="none" style="white-space: pre">milli-seconds per encoding</tspan></tspan></tspan><tspan class="TextParagraph" font-family="Liberation Sans, sans-serif" font-size="318px" font-weight="400"><tspan class="TextPosition" x="1219" y="6056"><tspan fill="rgb(0,0,0)" stroke="none" style="white-space: pre">(smaller is better)</tspan></tspan></tspan></text>
</svg>