<?xml version="1.0" encoding="UTF-8"?>
<!DOCTYPE svg PUBLIC "-//W3C//DTD SVG 1.1//EN" "http://www.w3.org/Graphics/SVG/1.1/DTD/svg11.dtd">
<svg width="203mm" height="76mm" viewBox="0 0 20300 7600" version="1.1" xmlns="http://www.w3.org/2000/svg"
     stroke-width="28.222" stroke-linejoin="round" xml:space="preserve">
 <path fill="rgb(255,255,255)" stroke="none" d="M 10123,7576 L -13,7576 -13,-13 20258,-13 20258,7576 10123,7576 Z"/>
 <path fill="none" stroke="rgb(179,179,179)" stroke-linejoin="round" d="M 10330,6794 L 2452,6794 2452,2369 18209,2369 18209,6794 10330,6794 Z"/>
 <path fill="none" stroke="rgb(179,179,179)" stroke-linejoin="round" d="M 18209,6793 L 2452,6793"/>
 <path fill="none" stroke="rgb(179,179,179)" stroke-linejoin="round" d="M 18209,6055 L 2452,6055"/>
 <path fill="none" stroke="rgb(179,179,179)" stroke-linejoin="round" d="M 18209,5317 L 2452,5317"/>
 <path fill="none" stroke="rgb(179,179,179)" stroke-linejoin="round" d="M 18209,4580 L 2452,4580"/>
 <path fill="none" stroke="rgb(179,179,179)" stroke-linejoin="round" d="M 18209,3842 L 2452,3842"/>
 <path fill="none" stroke="rgb(179,179,179)" stroke-linejoin="round" d="M 18209,3105 L 2452,3105"/>
 <path fill="none" stroke="rgb(179,179,179)" stroke-linejoin="round" d="M 18209,2368 L 2452,2368"/>
 <path fill="none" stroke="rgb(179,179,179)" stroke-linejoin="round" d="M 2452,6943 L 2452,6793"/>
 <path fill="none" stroke="rgb(179,179,179)" stroke-linejoin="round" d="M 2452,6943 L 2452,6793"/>
 <path fill="none" stroke="rgb(179,179,179)" stroke-linejoin="round" d="M 5078,6943 L 5078,6793"/>
 <path fill="none" stroke="rgb(179,179,179)" stroke-linejoin="round" d="M 5078,6943 L 5078,6793"/>
 <path fill="none" stroke="rgb(179,179,179)" stroke-linejoin="round" d="M 7704,6943 L 7704,6793"/>
 <path fill="none" stroke="rgb(179,179,179)" stroke-linejoin="round" d="M 7704,6943 L 7704,6793"/>
 <path fill="none" stroke="rgb(179,179,179)" stroke-linejoin="round" d="M 10330,6943 L 10330,6793"/>
 <path fill="none" stroke="rgb(179,179,179)" stroke-linejoin="round" d="M 10330,6943 L 10330,6793"/>
 <path fill="none" stroke="rgb(179,179,179)" stroke-linejoin="round" d="M 12956,6943 L 12956,6793"/>
 <path fill="none" stroke="rgb(179,179,179)" stroke-linejoin="round" d="M 12956,6943 L 12956,6793"/>
 <path fill="none" stroke="rgb(179,179,179)" stroke-linejoin="round" d="M 15582,6943 L 15582,6793"/>
 <path fill="none" stroke="rgb(179,179,179)" stroke-linejoin="round" d="M 15582,6943 L 15582,6793"/>
 <path fill="none" stroke="rgb(179,179,179)" stroke-linejoin="round" d="M 18209,6943 L 18209,6793"/>
 <path fill="none" stroke="rgb(179,179,179)" stroke-linejoin="round" d="M 18209,6943 L 18209,6793"/>
 <path fill="none" stroke="rgb(179,179,179)" stroke-linejoin="round" d="M 2452,6793 L 18209,6793"/>
 <path fill="none" stroke="rgb(179,179,179)" stroke-linejoin="round" d="M 2302,6793 L 2452,6793"/>
 <path fill="none" stroke="rgb(179,179,179)" stroke-linejoin="round" d="M 2302,6793 L 2452,6793"/>
 <path fill="none" stroke="rgb(179,179,179)" stroke-linejoin="round" d="M 2302,6055 L 2452,6055"/>
 <path fill="none" stroke="rgb(179,179,179)" stroke-linejoin="round" d="M 2302,6055 L 2452,6055"/>
 <path fill="none" stroke="rgb(179,179,179)" stroke-linejoin="round" d="M 2302,5317 L 2452,5317"/>
 <path fill="none" stroke="rgb(179,179,179)" stroke-linejoin="round" d="M 2302,5317 L 2452,5317"/>
 <path fill="none" stroke="rgb(179,179,179)" stroke-linejoin="round" d="M 2302,4580 L 2452,4580"/>
 <path fill="none" stroke="rgb(179,179,179)" stroke-linejoin="round" d="M 2302,4580 L 2452,4580"/>
 <path fill="none" stroke="rgb(179,179,179)" stroke-linejoin="round" d="M 2302,3842 L 2452,3842"/>
 <path fill="none" stroke="rgb(179,179,179)" stroke-linejoin="round" d="M 2302,3842 L 2452,3842"/>
 <path fill="none" stroke="rgb(179,179,179)" stroke-linejoin="round" d="M 2302,3105 L 2452,3105"/>
 <path fill="none" stroke="rgb(179,179,179)" stroke-linejoin="round" d="M 2302,3105 L 2452,3105"/>
 <path fill="none" stroke="rgb(179,179,179)" stroke-linejoin="round" d="M 2302,2368 L 2452,2368"/>
 <path fill="none" stroke="rgb(179,179,179)" stroke-linejoin="round" d="M 2302,2368 L 2452,2368"/>
 <path fill="none" stroke="rgb(179,179,179)" stroke-linejoin="round" d="M 2452,6793 L 2452,2368"/>
 <path fill="rgb(0,69,134)" stroke="none" d="M 2889,6793 L 3765,6793 3765,6588 2889,6588 2889,6793 Z"/>
 <path fill="rgb(0,69,134)" stroke="none" d="M 5516,6793 L 6391,6793 6391,6306 5516,6306 5516,6793 Z"/>
 <path fill="rgb(0,69,134)" stroke="none" d="M 8142,6793 L 9017,6793 9017,5503 8142,5503 8142,6793 Z"/>
 <path fill="rgb(0,69,134)" stroke="none" d="M 10767,6793 L 11643,6793 11643,4626 10767,4626 10767,6793 Z"/>
 <path fill="rgb(0,69,134)" stroke="none" d="M 13394,6793 L 14269,6793 14269,4443 13394,4443 13394,6793 Z"/>
 <path fill="rgb(0,69,134)" stroke="none" d="M 16020,6793 L 16895,6793 16895,3225 16020,3225 16020,6793 Z"/>
 <path fill="rgb(255,66,14)" stroke="none" d="M 3765,6793 L 4640,6793 4640,6758 3765,6758 3765,6793 Z"/>
 <path fill="rgb(255,66,14)" stroke="none" d="M 6391,6793 L 7266,6793 7266,6780 6391,6780 6391,6793 Z"/>
 <path fill="rgb(255,66,14)" stroke="none" d="M 9017,6793 L 9893,6793 9893,6720 9017,6720 9017,6793 Z"/>
 <path fill="rgb(255,66,14)" stroke="none" d="M 11643,6793 L 12518,6793 12518,6738 11643,6738 11643,6793 Z"/>
 <path fill="rgb(255,66,14)" stroke="none" d="M 14269,6793 L 15144,6793 15144,6640 14269,6640 14269,6793 Z"/>
 <path fill="rgb(255,66,14)" stroke="none" d="M 16895,6793 L 17771,6793 17771,5888 16895,5888 16895,6793 Z"/>
 <text class="SVGTextShape"><tspan class="TextParagraph" font-family="Roboto" font-size="282px" font-weight="400"><tspan class="TextPosition" x="3028" y="7348"><tspan fill="rgb(0,0,0)" stroke="none" style="white-space: pre">FPNGE AVX</tspan></tspan></tspan></text>
 <text class="SVGTextShape"><tspan class="TextParagraph" font-family="Roboto" font-size="282px" font-weight="400"><tspan class="TextPosition" x="5667" y="7348"><tspan fill="rgb(0,0,0)" stroke="none" style="white-space: pre">FPNG SSE2</tspan></tspan></tspan></text>
 <text class="SVGTextShape"><tspan class="TextParagraph" font-family="Roboto" font-size="282px" font-weight="400"><tspan class="TextPosition" x="7709" y="7348"><tspan fill="rgb(0,0,0)" stroke="none" style="white-space: pre">PNGEncoder Fastest</tspan></tspan></tspan></text>
 <text class="SVGTextShape"><tspan class="TextParagraph" font-family="Roboto" font-size="282px" font-weight="400"><tspan class="TextPosition" x="10855" y="7348"><tspan fill="rgb(0,0,0)" stroke="none" style="white-space: pre">PNGEncoder</tspan></tspan></tspan></text>
 <text class="SVGTextShape"><tspan class="TextParagraph" font-family="Roboto" font-size="282px" font-weight="400"><tspan class="TextPosition" x="13443" y="7348"><tspan fill="rgb(0,0,0)" stroke="none" style="white-space: pre">ObjectPlanet</tspan></tspan></tspan></text>
 <text class="SVGTextShape"><tspan class="TextParagraph" font-family="Roboto" font-size="282px" font-weight="400"><tspan class="TextPosition" x="16361" y="7348"><tspan fill="rgb(0,0,0)" stroke="none" style="white-space: pre">ImageIO</tspan></tspan></tspan></text>
 <text class="SVGTextShape"><tspan class="TextParagraph" font-family="Roboto" font-size="353px" font-weight="400"><tspan class="TextPosition" x="1999" y="6933"><tspan fill="rgb(0,0,0)" stroke="none" style="white-space: pre">0</tspan></tspan></tspan></text>
 <text class="SVGTextShape"><tspan class="TextParagraph" font-family="Roboto" font-size="353px" font-weight="400"><tspan class="TextPosition" x="1796" y="6195"><tspan fill="rgb(0,0,0)" stroke="none" style="white-space: pre">10</tspan></tspan></tspan></text>
 <text class="SVGTextShape"><tspan class="TextParagraph" font-family="Roboto" font-size="353px" font-weight="400"><tspan class="TextPosition" x="1796" y="5457"><tspan fill="rgb(0,0,0)" stroke="none" style="white-space: pre">20</tspan></tspan></tspan></text>
 <text class="SVGTextShape"><tspan class="TextParagraph" font-family="Roboto" font-size="353px" font-weight="400"><tspan class="TextPosition" x="1796" y="4720"><tspan fill="rgb(0,0,0)" stroke="none" style="white-space: pre">30</tspan></tspan></tspan></text>
 <text class="SVGTextShape"><tspan class="TextParagraph" font-family="Roboto" font-size="353px" font-weight="400"><tspan class="TextPosition" x="1796" y="3982"><tspan fill="rgb(0,0,0)" stroke="none" style="white-space: pre">40</tspan></tspan></tspan></text>
 <text class="SVGTextShape"><tspan class="TextParagraph" font-family="Roboto" font-size="353px" font-weight="400"><tspan class="TextPosition" x="1796" y="3245"><tspan fill="rgb(0,0,0)" stroke="none" style="white-space: pre">50</tspan></tspan></tspan></text>
 <text class="SVGTextShape"><tspan class="TextParagraph" font-family="Roboto" font-size="353px" font-weight="400"><tspan class="TextPosition" x="1796" y="2508"><tspan fill="rgb(0,0,0)" stroke="none" style="white-space: pre">60</tspan></tspan></tspan></text>
 <text class="SVGTextShape"><tspan class="TextParagraph" font-family="Roboto Black" font-size="459px" font-weight="900"><tspan class="TextPosition" x="7735" y="843"><tspan fill="rgb(0,0,0)" stroke="none" style="white-space: pre">Java FPNG Benchmark</tspan></tspan></tspan></text>
 <text class="SVGTextShape"><tspan class="TextParagraph" font-family="Roboto" font-size="388px" font-weight="400"><tspan class="TextPosition" x="6643" y="1757"><tspan fill="rgb(0,0,0)" stroke="none" style="white-space: pre">Smaller Image &quot;example.png&quot; (1.4 MByte)</tspan></tspan></tspan></text>
 <path fill="rgb(0,69,134)" stroke="none" d="M 18836,3595 L 18730,3595 18730,3384 18941,3384 18941,3595 18836,3595 Z"/>
 <path fill="rgb(255,66,14)" stroke="none" d="M 18836,4178 L 18730,4178 18730,3967 18941,3967 18941,4178 18836,4178 Z"/>
 <text class="SVGTextShape"><tspan class="TextParagraph" font-family="Roboto" font-size="353px" font-weight="400"><tspan class="TextPosition" x="19041" y="3629"><tspan fill="rgb(0,0,0)" stroke="none" style="white-space: pre">Score</tspan></tspan></tspan></text>
 <text class="SVGTextShape"><tspan class="TextParagraph" font-family="Roboto" font-size="353px" font-weight="400"><tspan class="TextPosition" x="19041" y="4212"><tspan fill="rgb(0,0,0)" stroke="none" style="white-space: pre">Error</tspan></tspan></tspan></text>
 <text class="SVGTextShape" transform="rotate(-90 -9509 6115)"><tspan class="TextParagraph" font-family="Liberation Sans, sans-serif" font-size="318px" font-weight="400"><tspan class="TextPosition" x="838" y="6730"><tspan fill="rgb(0,0,0)" stroke="none" style="white-space: pre">milli-seconds per encoding</tspan></tspan></tspan><tspan class="TextParagraph" font-family="Liberation Sans, sans-serif" font-size="318px" font-weight="400"><tspan class="TextPosition" x="1219" y="6056"><tspan fill="rgb(0,0,0)" stroke="none" style="white-space: pre">(smaller is better)</tspan></tspan></tspan></text>
</svg>